<svg xmlns="http://www.w3.org/2000/svg" viewBox="0 0 47 19"><path fill="none" d="M0 0h47v19H0z"/><path d="M41.37 17.8h-2.16v-4.86h-4.63V10.8h4.63V5.94h2.16v4.86H46v2.14h-4.63v4.86zM20.14 3.11v2.83h2.28v1.87h-2.28v6.66c0 1.03.45 1.51 1.45 1.51.25 0 .66-.03.82-.06v1.88c-.27.06-.82.1-1.35.1-2.36 0-3.27-.91-3.27-3.19v-6.9h-1.74V5.94h1.74V3.11h2.36zm10.24 14.7h-2.5l-4.2-11.86h2.49l2.95 9.53h.06l2.95-9.53h2.44l-4.18 11.86zM11.25 5.09c-1.39-.1-2.58.78-3.24.78s-1.7-.76-2.8-.74c-1.44.02-2.76.84-3.5 2.12-1.49 2.59-.38 6.43 1.07 8.54.71 1.03 1.56 2.19 2.67 2.14 1.07-.04 1.48-.69 2.78-.69s1.66.69 2.8.67c1.15-.02 1.89-1.05 2.59-2.08.82-1.19 1.15-2.35 1.17-2.41-.03 0-2.25-.86-2.27-3.43-.02-2.14 1.75-3.17 1.83-3.22-1-1.48-2.56-1.64-3.1-1.68zm-.86-1.39c.59-.72.99-1.71.88-2.7-.85.03-1.88.57-2.5 1.28-.55.63-1.03 1.65-.9 2.62.95.07 1.92-.48 2.51-1.2z" fill="#fff"/></svg>