<svg enable-background="new 0 0 534.382 80.637" viewBox="0 0 534.382 80.637" xmlns="http://www.w3.org/2000/svg"><g fill="#fff"><path d="m142.117 78.625v-53.768h-.354l-22.023 53.768h-8.404l-22.075-53.768h-.354v53.768h-10.329v-73.058h13.113l23.644 58.224h.405l23.593-58.224h13.163v73.058z"/><path d="m209.702 78.625h-10.479v-9.012h-.254c-2.936 6.379-8.354 9.973-16.505 9.973-11.594 0-18.682-7.543-18.682-19.744v-34.479h10.936v32.352c0 8.102 3.848 12.455 11.392 12.455 7.898 0 12.657-5.469 12.657-13.771v-31.036h10.936v53.262z"/><path d="m239.569 24.401c12.404 0 20.454 6.886 20.809 16.708h-10.278c-.607-5.164-4.404-8.404-10.53-8.404-5.924 0-9.873 2.886-9.873 7.139 0 3.341 2.431 5.619 8.202 6.936l8.657 1.975c10.886 2.531 15.037 6.783 15.037 14.479 0 9.721-9.062 16.404-21.618 16.404-13.315 0-21.315-6.531-22.328-16.656h10.835c1.013 5.568 4.81 8.303 11.493 8.303 6.581 0 10.632-2.734 10.632-7.088 0-3.443-1.975-5.469-7.797-6.785l-8.657-2.023c-10.126-2.33-15.139-7.189-15.139-14.936-.001-9.521 8.303-16.052 20.555-16.052z"/><path d="m269.339 11.289c0-3.493 2.835-6.278 6.328-6.278 3.494 0 6.329 2.785 6.329 6.278 0 3.442-2.835 6.277-6.329 6.277-3.493 0-6.328-2.835-6.328-6.277zm.86 14.074h10.936v53.262h-10.936z"/><path d="m327.2 43.691c-1.113-5.671-5.366-10.177-12.505-10.177-8.455 0-14.024 7.037-14.024 18.48 0 11.695 5.62 18.479 14.126 18.479 6.733 0 11.138-3.695 12.403-9.871h10.531c-1.165 11.34-10.228 19.035-23.036 19.035-15.239 0-25.162-10.43-25.162-27.643 0-16.911 9.923-27.593 25.061-27.593 13.721 0 22.074 8.81 23.036 19.29z"/><path d="m406.851 78.625h-45.363v-73.058h11.341v63.236h34.022z"/><path d="m414.445 11.289c0-3.493 2.835-6.278 6.328-6.278 3.494 0 6.329 2.785 6.329 6.278 0 3.442-2.835 6.277-6.329 6.277-3.493 0-6.328-2.835-6.328-6.277zm.86 14.074h10.936v53.262h-10.936z"/><path d="m463.499 78.625h-11.746l-19.188-53.262h11.645l13.366 42.579h.203l13.365-42.579h11.442z"/><path d="m532.775 62.981c-1.519 9.721-10.733 16.656-22.935 16.656-15.645 0-25.111-10.58-25.111-27.391 0-16.707 9.619-27.845 24.656-27.845 14.783 0 23.997 10.43 23.997 26.58v3.748h-37.616v.658c0 9.264 5.568 15.391 14.327 15.391 6.228 0 10.835-3.139 12.303-7.797zm-36.959-15.899h26.631c-.253-8.15-5.417-13.872-13.062-13.872-7.646.001-13.012 5.823-13.569 13.872z"/><path d="m47.896 19.129c-6.518-.482-12.048 3.641-15.134 3.641-3.13 0-7.956-3.537-13.074-3.44-6.719.098-12.912 3.91-16.377 9.926-6.978 12.113-1.781 30.064 5.017 39.894 3.325 4.803 7.291 10.216 12.5 10.019 5.014-.197 6.911-3.243 12.972-3.243 6.057 0 7.766 3.243 13.068 3.146 5.397-.1 8.816-4.903 12.117-9.733 3.82-5.575 5.389-10.973 5.482-11.259-.119-.045-10.52-4.036-10.624-16.019-.094-10.018 8.177-14.834 8.553-15.066-4.693-6.914-11.945-7.677-14.5-7.866z"/><path d="m43.874 12.64c2.768-3.346 4.631-8.005 4.118-12.64-3.984.158-8.803 2.654-11.661 5.998-2.559 2.962-4.807 7.706-4.196 12.246 4.441.342 8.973-2.256 11.739-5.604z"/></g></svg>
